<svg xmlns="http://www.w3.org/2000/svg" viewBox="0 0 1000 1000"><defs><style>.cls-1{fill:#f7e7ce;}</style></defs><title>Artboard 1</title><g id="Layer_9" data-name="Layer 9"><g id="Layer_7" data-name="Layer 7"><path class="cls-1" d="M514.08,801.7A316.83,316.83,0,0,1,513.9,168h.19a316.83,316.83,0,0,1,.19,633.66Zm-93-55.92A275.53,275.53,0,0,0,494.25,761l0-56.46a143,143,0,0,1-73.09,41.23Zm113.09-40,0,55.23a276,276,0,0,0,74.92-16A138.59,138.59,0,0,1,534.22,705.75ZM322,684.23c32.3,26.89,77,32.5,114,14.29,34.31-16.9,56.57-51.55,58.17-90.5l-.09-149.31a138.28,138.28,0,0,1-98.69,41.41h-.08A138.76,138.76,0,0,1,257.79,379.84a277.51,277.51,0,0,0,60.67,300.9C319.64,681.92,320.82,683.08,322,684.23ZM632.8,489.62v20A98.71,98.71,0,0,0,632.87,707h.06a98.71,98.71,0,0,0,0-197.42h-.07Zm.08-20a138.76,138.76,0,0,1,137.5,120.29A277,277,0,0,0,533.92,208.74l.09,152.1v1L534.1,511a138.29,138.29,0,0,1,98.69-41.41ZM395.23,242.7v20a98.71,98.71,0,0,0,.06,197.42h.06A98.82,98.82,0,0,0,494,361.74V361A98.82,98.82,0,0,0,395.3,262.7h-.06Zm23.77-18A138.51,138.51,0,0,1,494,264l0-55.23A275.68,275.68,0,0,0,419,224.73Z"/></g></g></svg>